<?xml version="1.0" encoding="UTF-8" standalone="no"?>
<svg
   viewBox="0 0 26.388596 20"
   version="1.1"
   id="svg1"
   sodipodi:docname="discord-logo-blue.svg"
   width="26.388596"
   height="20"
   inkscape:version="1.4 (e7c3feb, 2024-10-09)"
   xmlns:inkscape="http://www.inkscape.org/namespaces/inkscape"
   xmlns:sodipodi="http://sodipodi.sourceforge.net/DTD/sodipodi-0.dtd"
   xmlns="http://www.w3.org/2000/svg"
   xmlns:svg="http://www.w3.org/2000/svg">
  <defs
     id="defs1" />
  <sodipodi:namedview
     id="namedview1"
     pagecolor="#ffffff"
     bordercolor="#000000"
     borderopacity="0.25"
     inkscape:showpageshadow="2"
     inkscape:pageopacity="0.0"
     inkscape:pagecheckerboard="0"
     inkscape:deskcolor="#d1d1d1"
     inkscape:zoom="7.8767123"
     inkscape:cx="63.605218"
     inkscape:cy="48.18"
     inkscape:window-width="1920"
     inkscape:window-height="985"
     inkscape:window-x="0"
     inkscape:window-y="0"
     inkscape:window-maximized="1"
     inkscape:current-layer="svg1" />
  <path
     fill="#5865f2"
     d="M 22.353654,1.6749689 A 21.824408,21.824408 0 0 0 16.909486,0 a 14.956413,14.956413 0 0 0 -0.697385,1.4176007 20.273973,20.273973 0 0 0 -6.041926,0 A 15.020756,15.020756 0 0 0 9.4727904,0 21.977999,21.977999 0 0 0 4.0244716,1.67912 C 0.57905853,6.7766708 -0.35493898,11.747613 0.11205978,16.647987 v 0 A 21.94479,21.94479 0 0 0 6.7891042,20 16.127024,16.127024 0 0 0 8.2191582,17.694064 14.200913,14.200913 0 0 1 5.9671864,16.618929 c 0.188875,-0.136986 0.373599,-0.278124 0.5520963,-0.41511 a 15.684932,15.684932 0 0 0 13.3499373,0 c 0.180573,0.147364 0.365297,0.288501 0.552097,0.41511 A 14.254878,14.254878 0 0 1 18.165194,17.696139 15.981735,15.981735 0 0 0 19.595248,20 21.845164,21.845164 0 0 0 26.276443,16.650062 v 0 C 26.824389,10.967206 25.34037,6.0419261 22.353654,1.6749689 Z M 8.8106899,13.634288 c -1.3013699,0 -2.3765048,-1.180988 -2.3765048,-2.633873 0,-1.4528849 1.037775,-2.6442506 2.3723537,-2.6442506 1.3345782,0 2.4014112,1.1913657 2.3785802,2.6442506 -0.02283,1.452885 -1.048153,2.633873 -2.3744291,2.633873 z m 8.7671231,0 c -1.303445,0 -2.374429,-1.180988 -2.374429,-2.633873 0,-1.4528849 1.037775,-2.6442506 2.374429,-2.6442506 1.336654,0 2.395185,1.1913657 2.372354,2.6442506 -0.02283,1.452885 -1.046077,2.633873 -2.372354,2.633873 z"
     id="path1"
     style="stroke-width:0.207555" />
</svg>
