<?xml version="1.0" encoding="UTF-8" standalone="no"?>
<svg
   height="20"
   width="16.81842"
   viewBox="-18.15 -35.9725 2.2046147 5.395875"
   version="1.1"
   id="svg8"
   sodipodi:docname="Tencent_QQ-Logo.wine.svg"
   inkscape:version="1.4 (e7c3feb, 2024-10-09)"
   xmlns:inkscape="http://www.inkscape.org/namespaces/inkscape"
   xmlns:sodipodi="http://sodipodi.sourceforge.net/DTD/sodipodi-0.dtd"
   xmlns="http://www.w3.org/2000/svg"
   xmlns:svg="http://www.w3.org/2000/svg">
  <defs
     id="defs8" />
  <sodipodi:namedview
     id="namedview8"
     pagecolor="#ffffff"
     bordercolor="#000000"
     borderopacity="0.25"
     inkscape:showpageshadow="2"
     inkscape:pageopacity="0.0"
     inkscape:pagecheckerboard="0"
     inkscape:deskcolor="#d1d1d1"
     inkscape:zoom="21.467762"
     inkscape:cx="-1.863259"
     inkscape:cy="6.917349"
     inkscape:window-width="1920"
     inkscape:window-height="985"
     inkscape:window-x="0"
     inkscape:window-y="0"
     inkscape:window-maximized="1"
     inkscape:current-layer="svg8" />
  <path
     fill="#faab07"
     d="m -17.047591,-30.638595 c -0.469989,0 -0.901427,-0.157313 -1.179187,-0.392252 -0.14108,0.04215 -0.32153,0.109951 -0.43538,0.194064 -0.0975,0.07193 -0.0853,0.145275 -0.0678,0.174863 0.0771,0.130125 1.322738,0.0831 1.682327,0.0426 z m 0,0 c 0.470064,0 0.901465,-0.157313 1.179266,-0.392252 0.141,0.04215 0.321488,0.109951 0.435376,0.194064 0.09743,0.07193 0.08528,0.145275 0.06769,0.174863 -0.0771,0.130125 -1.322704,0.0831 -1.68233,0.0426 z m 0,0"
     id="path1"
     style="stroke-width:0.0375001" />
  <path
     d="m -17.044854,-33.455529 c 0.776178,-0.0053 1.39823,-0.155513 1.609018,-0.213114 0.05025,-0.01376 0.0771,-0.0384 0.0771,-0.0384 1.87e-4,-0.0071 0.0032,-0.126375 0.0032,-0.187875 -2e-6,-1.036279 -0.489154,-2.077544 -1.692158,-2.077582 -1.203004,3.8e-5 -1.692194,1.041341 -1.692194,2.077544 0,0.06157 0.003,0.180826 0.003,0.187876 0,0 0.0219,0.02306 0.0619,0.03424 0.19463,0.05415 0.828379,0.211876 1.624207,0.217313 z m 2.109194,0.863252 c -0.04811,-0.154838 -0.113775,-0.335401 -0.1803,-0.508801 0,0 -0.03825,-0.0047 -0.05764,8.62e-4 -0.596739,0.173363 -1.320079,0.283876 -1.871256,0.277201 h -0.0057 c -0.548099,0.0066 -1.266522,-0.102638 -1.861272,-0.274313 -0.0227,-0.0066 -0.0676,-0.0038 -0.0676,-0.0038 -0.0665,0.1734 -0.13219,0.354001 -0.1803,0.508801 -0.22946,0.738378 -0.1551,1.043929 -0.0985,1.050754 0.12146,0.0147 0.47272,-0.555789 0.47272,-0.555789 0,0.579714 0.52339,1.469817 1.721932,1.477992 h 0.0318 c 1.198504,-0.0082 1.721893,-0.898278 1.721893,-1.477992 0,0 0.351301,0.570489 0.472764,0.555826 0.05655,-0.0069 0.130913,-0.312451 -0.09851,-1.050791"
     id="path2"
     style="stroke-width:0.0375001" />
  <path
     fill="#ffffff"
     d="m -17.475768,-34.441595 c -0.1632,0.0074 -0.302626,-0.178501 -0.311401,-0.414864 -0.0088,-0.236438 0.116176,-0.434101 0.279376,-0.441489 0.163013,-0.0073 0.302401,0.178501 0.311251,0.414939 0.0089,0.236476 -0.116138,0.434139 -0.279226,0.441414 m 1.167491,-0.414864 c -0.0087,0.236326 -0.148162,0.422252 -0.311363,0.414864 -0.163126,-0.0073 -0.288151,-0.204938 -0.279226,-0.441376 0.0088,-0.236439 0.148201,-0.422252 0.311251,-0.414977 0.163201,0.0074 0.288226,0.205051 0.279338,0.441489"
     id="path3"
     style="stroke-width:0.0375001" />
  <path
     fill="#faab07"
     d="m -16.018251,-34.107806 c -0.04357,-0.09656 -0.482814,-0.204189 -1.026528,-0.204189 h -0.0058 c -0.543752,0 -0.982949,0.107626 -1.026569,0.204226 a 0.0323626,0.0323626 0 0 0 -0.003,0.01376 0.03300011,0.03300011 0 0 0 0.006,0.0186 c 0.0367,0.05351 0.524443,0.318264 1.023757,0.318264 h 0.0058 c 0.499276,0 0.986965,-0.264676 1.023715,-0.318264 a 0.03273761,0.03273761 0 0 0 0.006,-0.01868 0.0321001,0.0321001 0 0 0 -0.0032,-0.01369"
     id="path4"
     style="stroke-width:0.0375001" />
  <path
     d="m -17.27518,-34.852971 c 0.0075,0.09337 -0.04376,0.176325 -0.114225,0.185363 -0.07061,0.0091 -0.1338,-0.05925 -0.1413,-0.152626 -0.0074,-0.09345 0.04376,-0.1764 0.114112,-0.1854 0.07073,-0.0091 0.134026,0.05925 0.141413,0.152625 m 0.448352,0.03124 c 0.01444,-0.02584 0.11265,-0.1617 0.316013,-0.112238 0.05344,0.01301 0.07815,0.03214 0.08336,0.03964 0.0077,0.0111 0.0098,0.02692 0.002,0.04823 -0.01545,0.04222 -0.04736,0.04106 -0.06503,0.03281 -0.01144,-0.0053 -0.153075,-0.09975 -0.283576,0.04114 -0.009,0.0096 -0.02505,0.01298 -0.04024,0.0015 -0.01526,-0.01155 -0.02152,-0.03487 -0.01252,-0.05107"
     id="path5"
     style="stroke-width:0.0375001" />
  <path
     fill="#ffffff"
     d="m -17.044854,-32.85699 h -0.0057 c -0.374849,0.0045 -0.82935,-0.04515 -1.269524,-0.131925 -0.0376,0.218175 -0.0604,0.492451 -0.0409,0.81949 0.0493,0.826615 0.540267,1.346254 1.298032,1.353754 h 0.03075 c 0.757802,-0.0075 1.248679,-0.527139 1.298104,-1.353754 0.0195,-0.327114 -0.0033,-0.601315 -0.04095,-0.819528 -0.440214,0.08681 -0.894828,0.136501 -1.269754,0.131926"
     id="path6"
     style="stroke-width:0.0375001" />
  <path
     fill="#eb1923"
     d="m -18.112628,-32.926178 v 0.813491 c 0,0 0.372634,0.07515 0.745986,0.0231 v -0.75034 c -0.236514,-0.01339 -0.49159,-0.0432 -0.745986,-0.08625"
     id="path7"
     style="stroke-width:0.0375001" />
  <path
     fill="#eb1923"
     d="m -15.358736,-33.707043 c 0,0 -0.724877,0.228826 -1.686118,0.235314 h -0.0057 c -0.959664,-0.0064 -1.683604,-0.234564 -1.686074,-0.235314 l -0.24278,0.605927 c 0.60724,0.183076 1.359792,0.301051 1.928857,0.294189 h 0.0057 c 0.569061,0.0069 1.321576,-0.111113 1.928891,-0.294189 z m 0,0"
     id="path8"
     style="stroke-width:0.0375001" />
</svg>
